<svg width="101" height="101" viewBox="0 0 101 101" fill="none" xmlns="http://www.w3.org/2000/svg">
<path d="M66.7617 55.415C61.2467 55.415 56.7617 59.8999 56.7617 65.415C56.7617 70.93 61.2467 75.415 66.7617 75.415C72.2768 75.415 76.7617 70.93 76.7617 65.415C76.7617 59.8999 72.2768 55.415 66.7617 55.415ZM66.7617 72.0816C63.085 72.0816 60.0951 69.0915 60.0951 65.415C60.0951 61.7382 63.0852 58.7484 66.7617 58.7484C70.4385 58.7484 73.4283 61.7384 73.4283 65.415C73.4285 69.0917 70.4385 72.0816 66.7617 72.0816Z" fill="#372579"/>
<path d="M60.0953 17.0816H38.4287V20.415H60.0953V17.0816Z" fill="#372579"/>
<path d="M76.7619 27.0816H23.4285V30.415H76.7619V27.0816Z" fill="#372579"/>
<path d="M60.0951 37.0816H23.4285V40.415H60.0951V37.0816Z" fill="#372579"/>
<path d="M76.7618 37.0816H66.7618V40.415H76.7618V37.0816Z" fill="#372579"/>
<path d="M76.7619 47.0816H23.4285V50.415H76.7619V47.0816Z" fill="#372579"/>
<path d="M43.4285 57.0816H23.4285V60.415H43.4285V57.0816Z" fill="#372579"/>
<path d="M31.7619 65.415H23.4285V68.7484H31.7619V65.415Z" fill="#372579"/>
<path d="M43.4287 65.415H38.4287V68.7484H43.4287V65.415Z" fill="#372579"/>
<path d="M91.7618 0.414978C87.1669 0.414978 83.4284 4.15326 83.4284 8.74838V12.0818C83.4284 13.0017 84.1733 13.7484 85.095 13.7484H98.4284C99.3501 13.7484 100.095 13.0017 100.095 12.0818V8.74838C100.095 4.15326 96.3569 0.414978 91.7618 0.414978ZM96.7618 10.415H86.7618V8.74838C86.7618 5.99174 89.0052 3.74838 91.7618 3.74838C94.5184 3.74838 96.7618 5.99174 96.7618 8.74838V10.415Z" fill="#372579"/>
<path d="M91.7618 0.414978H21.7619C17.1669 0.414978 13.4287 4.15326 13.4287 8.74838V88.7484H16.7621V8.74838C16.7621 5.99174 19.0054 3.74838 21.7621 3.74838H85.0988C84.0505 5.14174 83.4284 6.87338 83.4284 8.74838L83.4289 92.0818C83.4289 94.8384 81.1855 97.0818 78.4288 97.0818H15.0953V100.415H78.4287C83.0236 100.415 86.7621 96.6767 86.7621 92.0816L86.7618 8.74838C86.7618 5.99174 89.0052 3.74838 91.7618 3.74838C92.6835 3.74838 93.4287 3.0017 93.4287 2.08177C93.4287 1.16185 92.6835 0.414978 91.7618 0.414978Z" fill="#372579"/>
<path d="M78.4288 97.0818C75.6722 97.0818 73.4286 94.8382 73.4286 92.0816V88.7482C73.4286 87.8265 72.6837 87.0816 71.762 87.0816H1.76182C0.841895 87.0816 0.0952148 87.8265 0.0952148 88.7482V92.0816C0.0952148 96.6767 3.8335 100.415 8.42861 100.415H78.4287C79.3503 100.415 80.0952 99.6701 80.0952 98.7484C80.0952 97.8267 79.3505 97.0818 78.4288 97.0818ZM8.42861 97.0816C5.67197 97.0816 3.42861 94.8382 3.42861 92.0816V90.415H70.0952V92.0816C70.0952 93.9566 70.7169 95.6882 71.7651 97.0816H8.42861Z" fill="#372579"/>
</svg>
